<?xml version="1.0" encoding="UTF-8" standalone="no"?>
<svg width="7120px" height="3408px" viewBox="0 0 7120 3408" version="1.1" xmlns="http://www.w3.org/2000/svg" xmlns:xlink="http://www.w3.org/1999/xlink" xmlns:sketch="http://www.bohemiancoding.com/sketch/ns">
    <!-- Generator: Sketch Beta 3.0.4 (8156) - http://www.bohemiancoding.com/sketch -->
    <title>Artboard 1</title>
    <desc>Created with Sketch Beta.</desc>
    <defs>
        <filter x="-50%" y="-50%" width="200%" height="200%" filterUnits="objectBoundingBox" id="filter-1">
            <feOffset dx="0" dy="2" in="SourceAlpha" result="shadowOffsetOuter1"></feOffset>
            <feGaussianBlur stdDeviation="2" in="shadowOffsetOuter1" result="shadowBlurOuter1"></feGaussianBlur>
            <feColorMatrix values="0 0 0 0 0   0 0 0 0 0   0 0 0 0 0  0 0 0 0.35 0" in="shadowBlurOuter1" type="matrix" result="shadowMatrixOuter1"></feColorMatrix>
            <feMerge>
                <feMergeNode in="shadowMatrixOuter1"></feMergeNode>
                <feMergeNode in="SourceGraphic"></feMergeNode>
            </feMerge>
        </filter>
        <filter x="-50%" y="-50%" width="200%" height="200%" filterUnits="objectBoundingBox" id="filter-2">
            <feOffset dx="0" dy="2" in="SourceAlpha" result="shadowOffsetOuter1"></feOffset>
            <feGaussianBlur stdDeviation="2" in="shadowOffsetOuter1" result="shadowBlurOuter1"></feGaussianBlur>
            <feColorMatrix values="0 0 0 0 0   0 0 0 0 0   0 0 0 0 0  0 0 0 0.35 0" in="shadowBlurOuter1" type="matrix" result="shadowMatrixOuter1"></feColorMatrix>
            <feMerge>
                <feMergeNode in="shadowMatrixOuter1"></feMergeNode>
                <feMergeNode in="SourceGraphic"></feMergeNode>
            </feMerge>
        </filter>
        <filter x="-50%" y="-50%" width="200%" height="200%" filterUnits="objectBoundingBox" id="filter-3">
            <feOffset dx="0" dy="2" in="SourceAlpha" result="shadowOffsetOuter1"></feOffset>
            <feGaussianBlur stdDeviation="2" in="shadowOffsetOuter1" result="shadowBlurOuter1"></feGaussianBlur>
            <feColorMatrix values="0 0 0 0 0   0 0 0 0 0   0 0 0 0 0  0 0 0 0.35 0" in="shadowBlurOuter1" type="matrix" result="shadowMatrixOuter1"></feColorMatrix>
            <feMerge>
                <feMergeNode in="shadowMatrixOuter1"></feMergeNode>
                <feMergeNode in="SourceGraphic"></feMergeNode>
            </feMerge>
        </filter>
    </defs>
    <g id="Page-1" stroke="none" stroke-width="1" fill="none" fill-rule="evenodd" sketch:type="MSPage">
        <g id="Artboard-1" sketch:type="MSArtboardGroup" fill="#FFFFFF">
            <g id="Fill-3-+-Fill-1" sketch:type="MSLayerGroup" transform="translate(3131.000000, 1961.000000)">
                <path d="M173.623767,56.9803648 L178.691987,56.9803648 L183.879022,32.7663156 C184.057246,31.9299508 184.32458,30.9314713 185.59442,30.9314713 C186.656333,30.9314713 186.489249,31.9299508 186.314738,32.7663156 L184.1872,42.6737377 L189.25542,42.6737377 L191.468357,32.3499754 C192.140407,29.2071598 192.793891,26.6427992 188.787584,26.6427992 C187.410068,26.6427992 185.891459,27.3207336 184.848111,28.7355533 L184.736721,28.7355533 L185.111732,27.0075574 L180.047225,27.0075574 L173.623767,56.9803648 L173.623767,56.9803648 Z M167.467643,52.2164016 C167.170605,53.5796393 166.676778,53.6828033 165.934182,53.6828033 C165.187873,53.6828033 164.738602,53.5796393 165.028214,52.2164016 L169.409533,31.7715205 C169.699145,30.4082828 170.200398,30.3051189 170.942994,30.3051189 C171.681878,30.3051189 172.134861,30.4082828 171.845249,31.7715205 L167.467643,52.2164016 L167.467643,52.2164016 Z M176.932034,31.6683566 C177.589231,28.577123 175.576795,26.6427992 171.726433,26.6427992 C167.872358,26.6427992 165.028214,28.577123 164.367304,31.6683566 L159.945142,52.3195656 C159.284232,55.4107992 161.289242,57.345123 165.150743,57.345123 C169.001105,57.345123 171.845249,55.4107992 172.50616,52.3195656 L176.932034,31.6683566 L176.932034,31.6683566 Z M163.505892,21.609873 L158.441385,21.609873 L157.282935,27.0075574 L155.808881,27.0075574 L154.954895,30.9867377 L156.432662,30.9867377 L151.713462,53.0011844 C151.472118,54.1544098 151.553804,56.9803648 154.661569,56.9803648 L157.568834,56.9803648 L158.419107,53.0011844 L157.891864,53.0011844 C157.360907,53.0011844 156.815099,52.8464385 157.297786,50.5915697 L161.493456,30.9867377 L163.134594,30.9867377 L163.988579,27.0075574 L162.347442,27.0075574 L163.505892,21.609873 L163.505892,21.609873 Z M153.42886,31.6683566 C154.093483,28.577123 152.081047,26.6427992 148.223259,26.6427992 C144.365471,26.6427992 141.528753,28.577123 140.867842,31.6683566 L139.575725,37.6960779 L144.692214,37.6960779 L145.53506,33.7647951 C145.757839,32.7147336 146.010322,30.3051189 147.488089,30.3051189 C148.705947,30.3051189 148.048749,32.4015574 147.859387,33.2931885 C146.221962,40.9457418 139.564586,37.7476598 138.257616,43.8306475 L136.1078,53.8928156 C135.625112,56.144 136.579349,57.345123 138.795999,57.345123 C140.901259,57.345123 141.84807,56.6671885 143.273855,54.9391926 L143.381531,54.9391926 C143.236725,55.6208115 143.077067,56.3503279 143.262716,56.9803648 L148.004193,56.9803648 L153.42886,31.6683566 L153.42886,31.6683566 Z M144.042442,51.847959 C143.897636,52.5295779 143.277568,52.9496025 142.568388,53.0564508 C141.866635,53.1080328 141.532466,52.6880082 141.56217,52.0579713 L143.18103,44.5122664 C143.515198,42.9390164 144.658797,42.3089795 146.266518,41.4689303 L144.042442,51.847959 L144.042442,51.847959 Z M133.003747,56.9803648 L141.00151,19.6718648 L135.93329,19.6718648 L127.946666,56.9803648 L133.003747,56.9803648 L133.003747,56.9803648 Z M131.930696,27.0075574 L126.866188,27.0075574 L121.679153,51.2216066 C121.497217,52.0579713 121.233595,53.0564508 119.963756,53.0564508 C118.905556,53.0564508 119.065214,52.0579713 119.239724,51.2216066 L124.42676,27.0075574 L119.365965,27.0075574 L114.086105,51.6416311 C113.417769,54.7807623 112.760571,57.345123 116.770591,57.345123 C118.144394,57.345123 119.666717,56.6671885 120.710065,55.2523689 L120.817741,55.2523689 L120.44273,56.9803648 L125.51095,56.9803648 L131.930696,27.0075574 L131.930696,27.0075574 Z M102.197138,27.0075574 L97.1289181,27.0075574 L90.7128857,56.9803648 L95.7773927,56.9803648 L100.960715,32.7663156 C101.138938,31.9299508 101.409986,30.9314713 102.468186,30.9314713 C103.634062,30.9314713 103.470691,31.9299508 103.288755,32.7663156 L98.1017193,56.9803648 L103.169939,56.9803648 L108.356975,32.7663156 C108.531485,31.9299508 108.802533,30.9314713 109.860732,30.9314713 C111.022896,30.9314713 110.86695,31.9299508 110.685014,32.7663156 L105.501692,56.9803648 L110.562486,56.9803648 L115.905467,32.0331148 C116.581229,28.8939836 117.008222,26.6427992 113.15786,26.6427992 C111.2531,26.6427992 110.180049,27.2175697 109.047589,28.7871352 C108.479503,27.2691516 107.714629,26.6427992 105.924972,26.6427992 C104.283834,26.6427992 102.887753,27.7407582 101.874109,28.9971475 L101.770145,28.9971475 L102.197138,27.0075574 L102.197138,27.0075574 Z M96.0001716,19.6718648 L90.9393776,19.6718648 L89.7920662,25.0105984 L94.8602863,25.0105984 L96.0001716,19.6718648 L96.0001716,19.6718648 Z M88.013548,56.9803648 L94.4332934,27.0075574 L89.3650734,27.0075574 L82.949041,56.9803648 L88.013548,56.9803648 L88.013548,56.9803648 Z M74.0898667,42.832168 L68.4981162,42.832168 L66.6564773,51.4316189 C65.6094165,56.2987459 69.1627399,57.7135656 72.593535,57.7135656 C76.0800248,57.7135656 80.2348514,56.2987459 81.2781992,51.4316189 L82.6928452,44.8254426 C83.5022753,41.0525902 76.2025532,32.9800123 76.7706394,30.3051189 L77.7582926,25.6922172 C78.1630076,23.805791 78.8350573,23.3857664 80.0009335,23.3857664 C81.114828,23.3857664 81.6049416,23.805791 81.1965136,25.6922172 L79.6147834,33.0831762 L85.2065339,33.0831762 L86.8922275,25.2206107 C87.9355754,20.3497992 84.3896779,18.9386639 80.9031881,18.9386639 C77.46868,18.9386639 73.3138535,20.3497992 72.2667926,25.2206107 L71.1269073,30.5667131 C69.8199377,36.6497008 77.7545796,41.785791 76.6295461,47.0287295 L75.7866993,50.9600123 C75.3856973,52.8464385 74.7136476,53.2664631 73.5997531,53.2664631 C72.4375898,53.2664631 71.9437632,52.8464385 72.3484782,50.9600123 L74.0898667,42.832168 L74.0898667,42.832168 Z M48.3987164,27.0075574 L43.3379224,27.0075574 L36.918177,56.9803648 L41.9789711,56.9803648 L47.1697195,32.7663156 C47.3442296,31.9299508 47.6152773,30.9314713 48.6734771,30.9314713 C49.8356403,30.9314713 49.6796951,31.9299508 49.497759,32.7663156 L44.3070106,56.9803648 L49.3715176,56.9803648 L54.5585531,32.7663156 C54.7404892,31.9299508 55.0078238,30.9314713 56.0623106,30.9314713 C57.2318999,30.9314713 57.0722417,31.9299508 56.8940185,32.7663156 L51.7069831,56.9803648 L56.7677772,56.9803648 L62.1107578,32.0331148 C62.7828075,28.8939836 63.2135134,26.6427992 59.3594384,26.6427992 C57.4583918,26.6427992 56.3816271,27.2175697 55.2528806,28.7871352 C54.6847944,27.2691516 53.9199202,26.6427992 52.130263,26.6427992 C50.4928381,26.6427992 49.093044,27.7407582 48.083113,28.9971475 L47.9754365,28.9971475 L48.3987164,27.0075574 L48.3987164,27.0075574 Z M39.955396,31.6683566 C40.6200198,28.577123 38.6038707,26.6427992 34.7535087,26.6427992 C30.8920077,26.6427992 28.0552897,28.577123 27.394379,31.6683566 L26.1022613,37.6960779 L31.2150371,37.6960779 L32.057884,33.7647951 C32.2806629,32.7147336 32.5368586,30.3051189 34.0220513,30.3051189 C35.2399093,30.3051189 34.5789985,32.4015574 34.3859235,33.2931885 C32.7484986,40.9457418 26.0911224,37.7476598 24.7878658,43.8306475 L22.6343364,53.8928156 C22.1516488,56.144 23.1058851,57.345123 25.3188222,57.345123 C27.4315088,57.345123 28.3746061,56.6671885 29.8003911,54.9391926 L29.9080676,54.9391926 C29.7632613,55.6208115 29.607316,56.3503279 29.7892522,56.9803648 L34.5344428,56.9803648 L39.955396,31.6683566 L39.955396,31.6683566 Z M30.5689783,51.847959 C30.424172,52.5295779 29.8003911,52.9496025 29.0949246,53.0564508 C28.393171,53.1080328 28.0552897,52.6880082 28.0887065,52.0579713 L29.7075666,44.5122664 C30.0417349,42.9390164 31.1853333,42.3089795 32.7930543,41.4689303 L30.5689783,51.847959 L30.5689783,51.847959 Z M7.28858307,56.9803648 L12.3530901,56.9803648 L17.5401255,32.7663156 C17.7183487,31.9299508 17.9856833,30.9314713 19.2518101,30.9314713 C20.3174358,30.9314713 20.1540646,31.9299508 19.9721285,32.7663156 L17.848303,42.6737377 L22.916523,42.6737377 L25.1257471,32.3499754 C25.7977968,29.2071598 26.4549946,26.6427992 22.4449744,26.6427992 C21.0748841,26.6427992 19.5488486,27.3207336 18.5092138,28.7355533 L18.4052503,28.7355533 L18.7728355,27.0075574 L13.7046154,27.0075574 L7.28858307,56.9803648 L7.28858307,56.9803648 Z M3.08177481,19.6718648 L2.03471397,24.5389918 L6.94698875,24.5389918 L0,56.9803648 L5.59546342,56.9803648 L12.5424522,24.5389918 L17.4027452,24.5389918 L18.4386671,19.6718648 L3.08177481,19.6718648 L3.08177481,19.6718648 Z" id="Fill-3" filter="url(#filter-1)" sketch:type="MSShapeGroup"></path>
                <path d="M60.510806,8.47465574 L59.4637452,8.47465574 L60.1432208,5.2949959 C60.2694622,4.70917213 60.4848151,4.66495902 60.8041316,4.66495902 C61.123448,4.66495902 61.316523,4.70917213 61.1902817,5.2949959 L60.510806,8.47465574 L60.510806,8.47465574 Z M59.9575717,11.061123 L59.3077999,14.0823525 C59.1815586,14.6681762 58.9699186,14.7160738 58.6506022,14.7160738 C58.3312857,14.7160738 58.1344977,14.6681762 58.2607391,14.0823525 L59.1407158,9.98158607 L62.3635839,9.98158607 L63.3772279,5.25078279 C63.6631275,3.92070492 62.7980027,3.08802459 61.1420129,3.08802459 C59.4823101,3.08802459 58.2607391,3.92070492 57.9785525,5.25078279 L56.0737929,14.1265656 C55.7916063,15.4566434 56.656731,16.2893238 58.3127208,16.2893238 C59.9687107,16.2893238 61.1902817,15.4566434 61.4761812,14.1265656 L62.133379,11.061123 L59.9575717,11.061123 L59.9575717,11.061123 Z M49.3347311,16.1308934 L51.5105384,16.1308934 L53.7420404,5.72238934 C53.8163,5.36131557 53.9314024,4.93392213 54.4772107,4.93392213 C54.9339075,4.93392213 54.8670738,5.36131557 54.7891012,5.72238934 L52.5575992,16.1308934 L54.7371195,16.1308934 L57.0317422,5.40552869 C57.3213547,4.05702869 57.5070038,3.08802459 55.851014,3.08802459 C55.2606499,3.08802459 54.6071651,3.38277869 54.1578943,3.99070902 L54.1133385,3.99070902 L54.2692838,3.24645492 L52.0934765,3.24645492 L49.3347311,16.1308934 L49.3347311,16.1308934 Z M43.0226622,16.1308934 L45.1984695,16.1308934 L47.4299715,5.72238934 C47.5079441,5.36131557 47.6193336,4.93392213 48.1688548,4.93392213 C48.6218386,4.93392213 48.5550049,5.36131557 48.4770323,5.72238934 L47.5636388,9.98158607 L49.7394461,9.98158607 L50.6899694,5.54185246 C50.979582,4.18966803 51.2617686,3.08802459 49.5389451,3.08802459 C48.948581,3.08802459 48.2950962,3.38277869 47.8458254,3.99070902 L47.8012697,3.99070902 L47.9609279,3.24645492 L45.7814076,3.24645492 L43.0226622,16.1308934 L43.0226622,16.1308934 Z M44.8717271,3.24645492 L42.6959198,3.24645492 L40.4644178,13.654959 C40.3864452,14.0160328 40.2750558,14.4434262 39.7255345,14.4434262 C39.2725507,14.4434262 39.3393844,14.0160328 39.417357,13.654959 L41.648859,3.24645492 L39.4693387,3.24645492 L37.2044199,13.8354959 C36.9148073,15.1876803 36.6326207,16.2893238 38.3554442,16.2893238 C38.9458083,16.2893238 39.5992931,15.9945697 40.0485639,15.3903238 L40.0931197,15.3903238 L39.9334614,16.1308934 L42.1129817,16.1308934 L44.8717271,3.24645492 L44.8717271,3.24645492 Z M34.0632374,14.0823525 C33.936996,14.6681762 33.7216431,14.7160738 33.4023266,14.7160738 C33.0830102,14.7160738 32.8899352,14.6681762 33.0161765,14.0823525 L34.8986583,5.2949959 C35.0211867,4.70917213 35.2365396,4.66495902 35.555856,4.66495902 C35.8751724,4.66495902 36.0682475,4.70917213 35.9457191,5.2949959 L34.0632374,14.0823525 L34.0632374,14.0823525 Z M38.1326653,5.25078279 C38.4148519,3.92070492 37.5497272,3.08802459 35.8937374,3.08802459 C34.2377475,3.08802459 33.0161765,3.92070492 32.7302769,5.25078279 L30.8292303,14.1265656 C30.5433307,15.4566434 31.4084555,16.2893238 33.0644453,16.2893238 C34.7241481,16.2893238 35.9457191,15.4566434 36.2279057,14.1265656 L38.1326653,5.25078279 L38.1326653,5.25078279 Z M24.0864556,16.1308934 L26.2659758,16.1308934 L26.429347,15.3645328 L26.4739028,15.3645328 C26.7152466,15.8398238 27.1867953,16.2893238 27.843993,16.2893238 C28.6831269,16.2893238 29.5519646,15.8398238 29.7784565,14.7823934 L31.9579768,4.59495492 C32.1844686,3.53752459 31.512419,3.08802459 30.6732851,3.08802459 C29.9678186,3.08802459 29.3217598,3.56331557 28.8947669,4.05702869 L28.8502111,4.05702869 L29.7004839,0.0925860656 L27.5246766,0.0925860656 L24.0864556,16.1308934 L24.0864556,16.1308934 Z M27.8402801,13.654959 C27.6954738,14.3328934 27.4207131,14.4434262 27.1496655,14.4434262 C26.8749048,14.4434262 26.6484129,14.3328934 26.7932192,13.654959 L28.4937648,5.72238934 C28.6385711,5.04813934 28.9133318,4.93392213 29.1880924,4.93392213 C29.4591401,4.93392213 29.685632,5.04813934 29.5408257,5.72238934 L27.8402801,13.654959 L27.8402801,13.654959 Z M23.0393947,16.1308934 L26.4776158,0.0925860656 L24.2980955,0.0925860656 L20.8635874,16.1308934 L23.0393947,16.1308934 L23.0393947,16.1308934 Z M19.2818572,8.47465574 L18.2310834,8.47465574 L18.9142721,5.2949959 C19.0405134,4.70917213 19.2521534,4.66495902 19.5714698,4.66495902 C19.8907862,4.66495902 20.0875743,4.70917213 19.9613329,5.2949959 L19.2818572,8.47465574 L19.2818572,8.47465574 Z M18.72491,11.061123 L18.0788512,14.0823525 C17.9526098,14.6681762 17.7372569,14.7160738 17.4179404,14.7160738 C17.102337,14.7160738 16.905549,14.6681762 17.0317903,14.0823525 L17.911767,9.98158607 L21.1346351,9.98158607 L22.1482791,5.25078279 C22.4304657,3.92070492 21.569054,3.08802459 19.9093512,3.08802459 C18.2533613,3.08802459 17.0317903,3.92070492 16.7458907,5.25078279 L14.8448441,14.1265656 C14.5589445,15.4566434 15.4240693,16.2893238 17.0837721,16.2893238 C18.7397619,16.2893238 19.9613329,15.4566434 20.2472325,14.1265656 L20.9007173,11.061123 L18.72491,11.061123 L18.72491,11.061123 Z M9.60211396,16.1308934 L11.9227275,9.21522541 C12.1974882,8.36043852 13.44505,4.23388115 13.8386261,3.04012705 L13.9277376,3.04012705 C13.4264851,5.0702459 13.0217701,6.84982377 12.6170551,8.74361885 L11.0316119,16.1308934 L13.1405855,16.1308934 L16.5788066,0.0925860656 L13.0143441,0.0925860656 L10.9313614,6.73560656 C10.5229334,8.02147131 10.0625237,10.0515902 9.63924378,11.7169508 L9.52414134,11.7169508 C9.93628231,9.69051639 10.1330703,7.70461066 10.211043,6.7135 L10.8571018,0.0925860656 L7.29263935,0.0925860656 L3.85813128,16.1308934 L5.96710488,16.1308934 L8.10206935,6.17557377 C8.30628335,5.20656967 8.49564541,4.00913115 8.6812945,3.04012705 L8.77040606,3.04012705 C8.63673872,4.41810246 8.36197807,6.76139754 8.19118092,8.40465164 L7.40031581,16.1308934 L9.60211396,16.1308934 L9.60211396,16.1308934 Z" id="Fill-1" filter="url(#filter-2)" sketch:type="MSShapeGroup"></path>
            </g>
            <path d="M3714.43843,1790.9965 C3714.16979,1792.28001 3713.77906,1793.80876 3712.01259,1793.80876 C3709.87981,1793.80876 3710.27869,1791.91212 3710.65315,1790.13811 L3712.71266,1780.40148 C3712.9813,1779.11798 3713.62439,1777.83447 3715.14664,1777.83447 C3716.85612,1777.83447 3717.00265,1778.87272 3716.67703,1780.40148 L3714.43843,1790.9965 L3714.43843,1790.9965 Z M3723.44983,1778.87272 C3724.70345,1772.94572 3721.8706,1771.97287 3719.31452,1771.97287 C3717.54805,1771.97287 3715.4804,1772.82309 3714.05583,1774.04937 L3716.52237,1762.42427 C3716.83984,1760.89551 3717.34454,1759.66924 3719.11915,1759.66924 C3720.88561,1759.66924 3720.81235,1760.89551 3720.48673,1762.42427 L3718.75283,1770.62397 L3725.20002,1770.62397 L3726.71413,1763.46252 C3727.91891,1757.7726 3726.42922,1754.478 3720.27508,1754.478 C3714.24306,1754.478 3711.04389,1757.838 3709.90423,1763.21726 L3704.03501,1790.9311 C3702.91978,1796.18774 3705.12582,1799 3710.66943,1799 C3717.91437,1799 3720.04715,1794.96964 3721.00772,1790.44059 L3723.44983,1778.87272 L3723.44983,1778.87272 Z M3692.85826,1765.17113 L3697.61225,1765.17113 L3690.55453,1798.50949 L3697.00172,1798.50949 L3706.22478,1754.96851 L3700.92538,1754.96851 C3700.14391,1758.94165 3697.46572,1760.10252 3693.81883,1760.65843 L3692.85826,1765.17113 L3692.85826,1765.17113 Z M3680.82677,1762.42427 C3681.19309,1760.70748 3682.26762,1759.66924 3683.24447,1759.66924 C3684.52251,1759.66924 3685.15746,1760.70748 3684.79114,1762.42427 L3678.84052,1790.56322 C3678.58002,1791.7895 3678.02648,1793.80876 3676.26001,1793.80876 C3674.30632,1793.80876 3674.57495,1791.96935 3674.92499,1790.31796 L3680.82677,1762.42427 L3680.82677,1762.42427 Z M3668.42082,1790.56322 C3667.2079,1796.31037 3670.10588,1799 3674.73776,1799 C3680.46045,1799 3684.0585,1796.37577 3685.2877,1790.56322 L3691.07552,1763.21726 C3692.50008,1756.48909 3689.8219,1754.478 3684.46552,1754.478 C3679.10101,1754.478 3675.6332,1756.48909 3674.20864,1763.21726 L3668.42082,1790.56322 L3668.42082,1790.56322 Z M3655.83578,1793.31825 C3658.17208,1783.71242 3669.17788,1776.61637 3671.7421,1764.50076 C3672.82477,1759.36675 3672.58056,1754.478 3666.37758,1754.478 C3659.85714,1754.478 3656.47073,1756.9796 3655.04617,1763.70777 L3653.59718,1770.55857 L3660.04436,1770.55857 L3661.6643,1762.91478 C3662.07946,1760.95274 3662.95862,1759.66924 3664.546,1759.66924 C3665.82404,1759.66924 3666.11709,1760.58486 3665.62867,1762.91478 L3664.77393,1766.94514 C3663.17841,1774.47448 3650.95155,1783.04206 3648.25708,1795.76263 L3647.67912,1798.50949 L3664.30179,1798.50949 L3665.40074,1793.31825 L3655.83578,1793.31825 L3655.83578,1793.31825 Z" id="Fill-1" filter="url(#filter-3)" sketch:type="MSShapeGroup"></path>
        </g>
        <g id="Artboard-2" sketch:type="MSArtboardGroup" transform="translate(3128.000000, 1958.000000)"></g>
    </g>
</svg>